<svg xmlns="http://www.w3.org/2000/svg" xmlns:xlink="http://www.w3.org/1999/xlink" width="500" zoomAndPan="magnify" viewBox="0 0 375 374.999991" height="500" preserveAspectRatio="xMidYMid meet" version="1.0"><defs><g/><clipPath id="cb3d0dd23d"><path d="M 210.398438 173.761719 L 230.75 173.761719 L 230.75 182.925781 L 210.398438 182.925781 Z M 210.398438 173.761719 " clip-rule="nonzero"/></clipPath><clipPath id="94d7b9025d"><path d="M 142 88.941406 L 166 88.941406 L 166 123 L 142 123 Z M 142 88.941406 " clip-rule="nonzero"/></clipPath><clipPath id="eab606d342"><path d="M 100.265625 131.421875 L 188.285156 131.421875 L 188.285156 225.441406 L 100.265625 225.441406 Z M 100.265625 131.421875 " clip-rule="nonzero"/></clipPath><clipPath id="b44339a856"><path d="M 126.75 84.53125 L 208 84.53125 L 208 168 L 126.75 168 Z M 126.75 84.53125 " clip-rule="nonzero"/></clipPath><clipPath id="1fd667f7f9"><path d="M 173.054688 113.472656 L 274.5 113.472656 L 274.5 194.78125 L 173.054688 194.78125 Z M 173.054688 113.472656 " clip-rule="nonzero"/></clipPath><clipPath id="bc1c033c32"><path d="M 215.0625 199.511719 L 241.3125 199.511719 L 241.3125 225.761719 L 215.0625 225.761719 Z M 215.0625 199.511719 " clip-rule="nonzero"/></clipPath></defs><rect x="-37.5" width="450" fill="#ffffff" y="-37.499999" height="449.999989" fill-opacity="1"/><rect x="-37.5" width="450" fill="#ffffff" y="-37.499999" height="449.999989" fill-opacity="1"/><g clip-path="url(#cb3d0dd23d)"><path fill="#00a79d" d="M 210.410156 174.105469 L 227.253906 174.105469 C 228.453125 174.105469 229.632812 174.019531 230.789062 173.863281 C 226.066406 179.355469 219.0625 182.835938 211.246094 182.835938 L 210.410156 182.835938 L 210.410156 174.105469 " fill-opacity="1" fill-rule="nonzero"/></g><g clip-path="url(#94d7b9025d)"><path fill="#00a79d" d="M 158.882812 105.730469 L 158.882812 122.574219 L 142.875 122.574219 L 142.875 114.460938 C 142.875 101.433594 152.546875 90.664062 165.105469 88.941406 C 161.226562 93.449219 158.882812 99.316406 158.882812 105.730469 " fill-opacity="1" fill-rule="nonzero"/></g><g clip-path="url(#eab606d342)"><path fill="#00a79d" d="M 122.492188 131.550781 C 118.617188 136.058594 116.269531 141.925781 116.269531 148.339844 C 116.269531 162.570312 127.804688 174.105469 142.035156 174.105469 L 158.882812 174.105469 L 158.882812 190.949219 C 158.882812 205.179688 170.417969 216.714844 184.644531 216.714844 C 185.84375 216.714844 187.023438 216.628906 188.179688 216.472656 C 183.453125 221.964844 176.453125 225.445312 168.636719 225.445312 C 154.410156 225.445312 142.875 213.910156 142.875 199.683594 L 142.875 182.835938 L 126.027344 182.835938 C 111.796875 182.835938 100.265625 171.300781 100.265625 157.074219 L 100.265625 157.070312 C 100.265625 144.042969 109.9375 133.273438 122.492188 131.550781 " fill-opacity="1" fill-rule="nonzero"/></g><g clip-path="url(#b44339a856)"><path fill="#6bf2e5" d="M 173.558594 167.726562 C 174.882812 162.910156 176.625 157.789062 178.917969 152.648438 C 184.128906 140.960938 192.824219 127.941406 207.21875 119.300781 L 207.21875 101.363281 C 207.21875 92.070312 199.683594 84.535156 190.390625 84.535156 C 181.09375 84.535156 173.558594 92.070312 173.558594 101.363281 L 173.558594 131.34375 L 143.582031 131.34375 C 134.285156 131.34375 126.75 138.878906 126.75 148.171875 C 126.75 157.46875 134.285156 165.003906 143.582031 165.003906 L 173.558594 165.003906 L 173.558594 167.726562 " fill-opacity="1" fill-rule="nonzero"/></g><g clip-path="url(#1fd667f7f9)"><path fill="#00a79d" d="M 173.558594 194.984375 C 173.558594 194.984375 184.945312 151.085938 229.296875 135.484375 C 229.296875 135.484375 196.5 152.796875 182.832031 185.40625 C 189.363281 180.15625 199.871094 173.664062 215.988281 168.371094 C 258.667969 154.359375 274.738281 117.65625 274.738281 117.65625 C 174.3125 92.71875 173.558594 194.984375 173.558594 194.984375 " fill-opacity="1" fill-rule="nonzero"/></g><g fill="#00a79d" fill-opacity="1"><g transform="translate(129.246485, 272.293314)"><g><path d="M 28.296875 0 L 23 0 L 22.96875 -15.34375 L 17.296875 -2.359375 L 13.390625 -2.359375 L 7.71875 -15.34375 L 7.71875 0 L 2.359375 0 L 2.359375 -23.640625 L 8.9375 -23.640625 L 15.34375 -9.578125 L 21.75 -23.640625 L 28.296875 -23.640625 Z M 28.296875 0 "/></g></g></g><g fill="#00a79d" fill-opacity="1"><g transform="translate(159.931582, 272.293314)"><g><path d="M 20.84375 -18.875 L 8.359375 -18.875 L 8.359375 -14.203125 L 19.625 -14.203125 L 19.625 -9.46875 L 8.359375 -9.46875 L 8.359375 -4.71875 L 21.203125 -4.71875 L 21.203125 0 L 2.359375 0 L 2.359375 -23.609375 L 20.84375 -23.609375 Z M 20.84375 -18.875 "/></g></g></g><g fill="#00a79d" fill-opacity="1"><g transform="translate(182.658789, 272.293314)"><g><path d="M 2.359375 -23.609375 L 12.515625 -23.609375 C 16.222656 -23.609375 19.238281 -22.515625 21.5625 -20.328125 C 23.882812 -18.148438 25.046875 -15.304688 25.046875 -11.796875 C 25.046875 -8.316406 23.863281 -5.476562 21.5 -3.28125 C 19.144531 -1.09375 16.070312 0 12.28125 0 L 2.359375 0 Z M 8.359375 -18.8125 L 8.359375 -4.78125 L 12.640625 -4.78125 C 14.484375 -4.78125 15.992188 -5.425781 17.171875 -6.71875 C 18.359375 -8.019531 18.953125 -9.703125 18.953125 -11.765625 C 18.953125 -13.835938 18.332031 -15.53125 17.09375 -16.84375 C 15.851562 -18.15625 14.28125 -18.8125 12.375 -18.8125 Z M 8.359375 -18.8125 "/></g></g></g><g fill="#00a79d" fill-opacity="1"><g transform="translate(208.521942, 272.293314)"><g><path d="M 8.359375 0 L 2.359375 0 L 2.359375 -23.609375 L 8.359375 -23.609375 Z M 8.359375 0 "/></g></g></g><g fill="#00a79d" fill-opacity="1"><g transform="translate(219.244869, 272.293314)"><g><path d="M 24.140625 0 L 18.84375 0 L 7.984375 -14.53125 L 7.984375 0 L 2.359375 0 L 2.359375 -23.609375 L 7.65625 -23.609375 L 18.546875 -9.03125 L 18.546875 -23.609375 L 24.140625 -23.609375 Z M 24.140625 0 "/></g></g></g><g clip-path="url(#bc1c033c32)"><path fill="#6bf2e5" d="M 241.007812 209.21875 L 241.007812 215.757812 C 241.007812 216.195312 240.652344 216.542969 240.222656 216.542969 L 232.085938 216.542969 L 232.085938 224.671875 C 232.085938 225.109375 231.734375 225.457031 231.304688 225.457031 L 224.765625 225.457031 C 224.328125 225.457031 223.980469 225.101562 223.980469 224.671875 L 223.980469 216.542969 L 215.84375 216.542969 C 215.414062 216.542969 215.0625 216.1875 215.0625 215.757812 L 215.0625 209.21875 C 215.0625 208.785156 215.414062 208.4375 215.84375 208.4375 L 223.976562 208.4375 L 223.976562 200.300781 C 223.980469 199.867188 224.335938 199.515625 224.765625 199.515625 L 231.304688 199.515625 C 231.738281 199.515625 232.085938 199.867188 232.085938 200.300781 L 232.085938 208.429688 L 240.21875 208.429688 C 240.652344 208.4375 241.007812 208.789062 241.007812 209.21875 Z M 241.007812 209.21875 " fill-opacity="1" fill-rule="nonzero"/></g></svg>